<svg xmlns="http://www.w3.org/2000/svg" aria-hidden="true" style="position:absolute;width:0;height:0;overflow:hidden">
  <defs>
    <symbol id="icon-facebook" viewBox="0 0 32 32">
      <path d="M19.52 4.64h.96v3.6h-1.2c-.48 0-.96 0-1.2.24s-.24.48-.24 1.04v1.28h2.64v3.04h-2.64v13.2h-4.08V13.76H11.6v-3.04h2.16V9.68c0-1.76.24-3.04.72-3.6.72-1.04 2.16-1.52 4.32-1.52.24.08.48.08.72.08z"/>
    </symbol>
    <symbol id="icon-instagram" viewBox="0 0 32 32">
      <path d="M28.718 10.756a9.264 9.264 0 0 0-.596-3.145 6.547 6.547 0 0 0-3.743-3.737 9.42 9.42 0 0 0-3.108-.596c-1.368-.061-1.801-.078-5.273-.078s-3.916 0-5.274.078a9.413 9.413 0 0 0-3.106.596 6.541 6.541 0 0 0-3.743 3.737 9.288 9.288 0 0 0-.596 3.101c-.061 1.367-.08 1.8-.08 5.265s0 3.909.08 5.265a9.335 9.335 0 0 0 .596 3.104 6.548 6.548 0 0 0 3.744 3.735 9.37 9.37 0 0 0 3.106.639c1.369.061 1.803.08 5.274.08s3.916 0 5.274-.08a9.362 9.362 0 0 0 3.108-.595 6.555 6.555 0 0 0 3.743-3.737 9.35 9.35 0 0 0 .596-3.104c.061-1.365.08-1.798.08-5.265-.003-3.466-.003-3.906-.082-5.264zM15.99 22.531c-3.631 0-6.572-2.936-6.572-6.561s2.941-6.561 6.572-6.561c3.628 0 6.572 2.936 6.572 6.561s-2.944 6.561-6.572 6.561zm6.834-11.835a1.53 1.53 0 1 1 0-3.06 1.53 1.53 0 1 1 0 3.06z"/>
      <path d="M15.992 19.976a4.004 4.004 0 1 0 0-8.009 4.004 4.004 0 0 0 0 8.009z"/>
    </symbol>
    <symbol id="icon-youtube" viewBox="0 0 32 32">
      <path d="M24.24 6c-1.36-.08-4.16-.16-8.4-.16h-.56c-4.08 0-6.8.08-8.16.24-1.84.16-3.12.64-3.84 1.28-.64.56-1.12 1.6-1.28 2.96-.08.88-.16 2.72-.16 5.52v.4c0 2.64.08 4.48.24 5.36.24 1.28.64 2.24 1.44 2.8.8.64 2.16 1.04 4.08 1.2 1.36.08 4.16.16 8.4.16h.56c4.08 0 6.8-.08 8.16-.24 1.84-.16 3.12-.64 3.84-1.28.64-.56 1.12-1.6 1.28-2.96.08-.88.16-2.72.16-5.52v-.4c0-2.64-.08-4.48-.24-5.36-.24-1.28-.64-2.24-1.44-2.8-.8-.64-2.16-1.04-4.08-1.2zm-3.12 9.84-8.8 5.28V10.56l8.8 5.28z"/>
    </symbol>
    <symbol id="icon-down-arrow" viewBox="0 0 32 32">
      <path d="M16.947 17.867a1.334 1.334 0 0 1-1.894 0l-6.107-6.12a1.334 1.334 0 1 0-1.894 1.88l6.12 6.12a4.001 4.001 0 0 0 5.654 0l6.12-6.12a1.337 1.337 0 0 0-.434-2.172 1.331 1.331 0 0 0-1.46.292l-6.107 6.12z"/>
    </symbol>
    <symbol id="icon-check" viewBox="0 0 32 32">
      <path stroke-linecap="round" stroke-linejoin="round" stroke-width="3.2" d="M26.667 8 12 22.667 5.333 16"/>
    </symbol>
    <symbol id="icon-burger-menu" viewBox="0 0 46 32">
      <path stroke-linecap="round" stroke-width="3.429" d="M8.671 5.074H44M8.671 24.468H44M19.602 14.771H44"/>
    </symbol>
    <symbol id="icon-close" viewBox="0 0 32 32">
      <path stroke-linecap="round" stroke-linejoin="round" stroke-width="2.4" stroke="currentColor" d="M24 8 8 24M8 8l16 16"/>
    </symbol>

    <symbol id="icon-check" viewBox="0 0 32 32">
      <path stroke-linejoin="round" stroke-linecap="round" stroke-miterlimit="4" stroke-width="3.2" d="M26.667 8l-14.667 14.667-6.667-6.667"></path>
    </symbol>

    <symbol id="icon-checkmark" viewBox="0 0 32 32">
      <path fill="#4dc274" d="M32 16c0 8.837-7.163 16-16 16s-16-7.163-16-16c0-8.837 7.163-16 16-16s16 7.163 16 16z"/>
      <path fill="none" stroke="#fff" stroke-linejoin="round" stroke-linecap="round" stroke-miterlimit="4" stroke-width="2.4" d="M22.4 11.2l-8.8 9.6-4-4.364"/>
    </symbol>

    <symbol id="icon-moon" viewBox="0 0 32 32">
      <path stroke="currentColor" stroke-linejoin="miter" stroke-linecap="butt" stroke-miterlimit="4" stroke-width="0.5714" d="M16.5 13c0-2.898 1.307-5.58 3.517-7.375 0.485-0.394 0.304-1.172-0.304-1.313-0.891-0.206-1.799-0.312-2.713-0.312-6.628 0-12 5.372-12 12s5.372 12 12 12c3.591 0 6.924-1.589 9.19-4.287 0.402-0.478 0.077-1.209-0.547-1.232-5.096-0.189-9.144-4.371-9.144-9.481zM17 26.5c-5.799 0-10.5-4.701-10.5-10.5s4.701-10.5 10.5-10.5c0.307 0 0.614 0.014 0.919 0.041-1.853 2.004-2.919 4.644-2.919 7.459 0 5.32 3.788 9.771 8.84 10.776l0.177 0.034c-1.901 1.712-4.378 2.691-7.017 2.691z"></path>
    </symbol>

    <symbol id="icon-sun" viewBox="0 0 32 32">
      <path stroke="currentColor" d="M22.5 16c0 3.59-2.91 6.5-6.5 6.5s-6.5-2.91-6.5-6.5c0-3.59 2.91-6.5 6.5-6.5s6.5 2.91 6.5 6.5zM21 16c0-2.762-2.238-5-5-5s-5 2.238-5 5c0 2.762 2.238 5 5 5s5-2.238 5-5zM15 4.75v2c0 0.414 0.336 0.75 0.75 0.75s0.75-0.336 0.75-0.75v-2c0-0.414-0.336-0.75-0.75-0.75s-0.75 0.336-0.75 0.75zM9.726 6.632l1.023 1.771c0.207 0.359 0.666 0.482 1.025 0.274s0.482-0.666 0.274-1.025l-1.023-1.772c-0.207-0.359-0.666-0.482-1.025-0.274s-0.482 0.666-0.274 1.025zM5.882 11.024l1.772 1.023c0.359 0.207 0.817 0.084 1.025-0.274s0.084-0.817-0.274-1.025l-1.771-1.023c-0.359-0.207-0.817-0.084-1.025 0.274s-0.084 0.817 0.274 1.025zM4.75 17h2c0.414 0 0.75-0.336 0.75-0.75s-0.336-0.75-0.75-0.75h-2c-0.414 0-0.75 0.336-0.75 0.75s0.336 0.75 0.75 0.75zM6.632 22.274l1.771-1.023c0.359-0.207 0.482-0.666 0.274-1.025s-0.666-0.482-1.025-0.274l-1.772 1.023c-0.359 0.207-0.482 0.666-0.274 1.025s0.666 0.482 1.025 0.274zM11.024 26.118l1.023-1.771c0.207-0.359 0.084-0.817-0.274-1.025s-0.817-0.084-1.025 0.274l-1.023 1.771c-0.207 0.359-0.084 0.817 0.274 1.025s0.817 0.084 1.025-0.274zM17 27.25v-2c0-0.414-0.336-0.75-0.75-0.75s-0.75 0.336-0.75 0.75v2c0 0.414 0.336 0.75 0.75 0.75s0.75-0.336 0.75-0.75zM22.274 25.368l-1.023-1.771c-0.207-0.359-0.666-0.482-1.025-0.274s-0.482 0.666-0.274 1.025l1.023 1.771c0.207 0.359 0.666 0.482 1.025 0.274s0.482-0.666 0.274-1.025zM26.118 20.976l-1.771-1.023c-0.359-0.207-0.817-0.084-1.025 0.274s-0.084 0.817 0.274 1.025l1.771 1.023c0.359 0.207 0.817 0.084 1.025-0.274s0.084-0.817-0.274-1.025zM27.25 15h-2c-0.414 0-0.75 0.336-0.75 0.75s0.336 0.75 0.75 0.75h2c0.414 0 0.75-0.336 0.75-0.75s-0.336-0.75-0.75-0.75zM25.368 9.726l-1.771 1.023c-0.359 0.207-0.482 0.666-0.274 1.025s0.666 0.482 1.025 0.274l1.771-1.023c0.359-0.207 0.482-0.666 0.274-1.025s-0.666-0.482-1.025-0.274zM20.976 5.882l-1.023 1.772c-0.207 0.359-0.084 0.817 0.274 1.025s0.817 0.084 1.025-0.274l1.023-1.771c0.207-0.359 0.084-0.817-0.274-1.025s-0.817-0.084-1.025 0.274z"></path>
      <path stroke="currentColor" d="M15.612 15.137c0-0.782 0.263-1.495 0.725-2.043 0.192-0.229 0.056-0.585-0.242-0.592-0.015-0.001-0.031-0.001-0.046-0.001-1.89-0.026-3.506 1.53-3.547 3.421-0.043 1.969 1.54 3.579 3.499 3.579 0.78 0 1.499-0.255 2.080-0.686 0.238-0.177 0.156-0.552-0.132-0.625-1.355-0.344-2.335-1.582-2.335-3.053z"></path>
    </symbol>
  </defs>
</svg>
